# xmcd CD database file
#
# Track frame offsets:
#	150
#	19137
#	32341
#	47011
#	59372
#	70993
#	84880
#	98433
#	114302
#	128299
#	142589
#	155015
#	169393
#	183595
#	198366
#	212084
#	227501
#	240815
#	256046
#	270251
#	281869
#	294776
#	306594
#	321387
#	332419
#
# Disc length: 4651 seconds
#
# Revision: 0
# Processed by: cddbd v1.5.2PL0 Copyright (c) Steve Scherf et al.
# Submitted via: CDex 1.51
#
DISCID=48122919
DTITLE=Django Reinhardt - The Django Reinhardt Anthology (1950-1953)
DYEAR=2009
DGENRE=Jazz
TTITLE0=Stormy Weather
TTITLE1=Double Whiskey
TTITLE2=Dream Of You
TTITLE3=Impromptu
TTITLE4=Vamp
TTITLE5=Keep Cool
TTITLE6=Flèche D'Or
TTITLE7=Troublant Boléro
TTITLE8=Nuits De St-Germain-Des-Prés
TTITLE9=Crazy Rythm
TTITLE10=Anouman
TTITLE11=Fine And Dandy
TTITLE12=D.R. Blues
TTITLE13=Deccaphonie
TTITLE14=Chez Moi
TTITLE15=I Cover The Waterfront
TTITLE16=Le Soir
TTITLE17=Blues For Ike
TTITLE18=Insensiblement
TTITLE19=September Song
TTITLE20=Night And Day
TTITLE21=Manoir De Mes Rêves
TTITLE22=Nuages
TTITLE23=Brazil
TTITLE24=Confessin' (That I Love You)
EXTD=YEAR: 2009
EXTT0=
EXTT1=
EXTT2=
EXTT3=
EXTT4=
EXTT5=
EXTT6=
EXTT7=
EXTT8=
EXTT9=
EXTT10=
EXTT11=
EXTT12=
EXTT13=
EXTT14=
EXTT15=
EXTT16=
EXTT17=
EXTT18=
EXTT19=
EXTT20=
EXTT21=
EXTT22=
EXTT23=
EXTT24=
PLAYORDER=
